<svg xmlns="http://www.w3.org/2000/svg" viewBox="0 0 1600 1000" role="img" aria-label="Facility / About Placeholder">
  <defs>
    <linearGradient id="bg" x1="0" x2="1" y1="0" y2="1">
      <stop offset="0%" stop-color="#0a0d12"/>
      <stop offset="50%" stop-color="#131927"/>
      <stop offset="100%" stop-color="#0b0f16"/>
    </linearGradient>
    <linearGradient id="glow" x1="0" x2="1" y1="0" y2="1">
      <stop offset="0%" stop-color="#d8b274" stop-opacity="0.65"/>
      <stop offset="100%" stop-color="#9fd3ff" stop-opacity="0.18"/>
    </linearGradient>
    <filter id="blur"><feGaussianBlur stdDeviation="40"/></filter>
  </defs>
  <rect width="1600" height="1000" fill="url(#bg)"/>
  <circle cx="250" cy="180" r="150" fill="#d8b274" opacity="0.16" filter="url(#blur)"/>
  <circle cx="1260" cy="220" r="200" fill="#9fd3ff" opacity="0.12" filter="url(#blur)"/>
  <circle cx="1260" cy="820" r="180" fill="#d8b274" opacity="0.10" filter="url(#blur)"/>
  <rect x="90" y="110" width="1420" height="780" rx="38" fill="none" stroke="#ffffff29" stroke-width="2" opacity=".55"/>
  <rect x="150" y="170" width="500" height="36" rx="18" fill="#d8b274" opacity=".20"/>
  <rect x="150" y="250" width="860" height="90" rx="22" fill="#ffffff0d"/>
  <rect x="150" y="380" width="1040" height="30" rx="14" fill="#ffffff10"/>
  <rect x="150" y="435" width="980" height="30" rx="14" fill="#ffffff0d"/>
  <rect x="150" y="490" width="860" height="30" rx="14" fill="#ffffff0a"/>
  <rect x="150" y="610" width="240" height="76" rx="38" fill="#d8b274" opacity=".75"/>
  <rect x="420" y="610" width="240" height="76" rx="38" fill="#ffffff10" stroke="#ffffff24" />
  <g transform="translate(1080 265)">
    <rect width="300" height="420" rx="32" fill="#ffffff0a" stroke="#ffffff1f"/>
    <rect x="30" y="34" width="170" height="22" rx="11" fill="#d8b274" opacity=".24"/>
    <rect x="30" y="90" width="240" height="90" rx="20" fill="#ffffff0d"/>
    <rect x="30" y="205" width="240" height="90" rx="20" fill="#ffffff0d"/>
    <rect x="30" y="320" width="240" height="60" rx="18" fill="#ffffff0a"/>
  </g>
  <text x="150" y="740" fill="#f4f2ee" font-size="64" font-family="Georgia, serif" font-weight="700">Facility / About Placeholder</text>
  <text x="150" y="800" fill="#c6c0b6" font-size="28" font-family="Arial, sans-serif">Workspace, machine area, hygiene standards, team, or storefront photo</text>
</svg>